<?xml version="1.0" encoding="UTF-8" standalone="no"?>
<!-- Created with Inkscape (http://www.inkscape.org/) -->

<svg
   width="128"
   height="128"
   viewBox="0 0 33.866666 33.866666"
   version="1.1"
   id="svg1"
   inkscape:version="1.4.2 (ebf0e940, 2025-05-08)"
   sodipodi:docname="icon-space-shooter-128-by-128-path-only.svg"
   xmlns:inkscape="http://www.inkscape.org/namespaces/inkscape"
   xmlns:sodipodi="http://sodipodi.sourceforge.net/DTD/sodipodi-0.dtd"
   xmlns="http://www.w3.org/2000/svg"
   xmlns:svg="http://www.w3.org/2000/svg">
  <sodipodi:namedview
     id="namedview1"
     pagecolor="#ffffff"
     bordercolor="#000000"
     borderopacity="0.25"
     inkscape:showpageshadow="2"
     inkscape:pageopacity="0.0"
     inkscape:pagecheckerboard="0"
     inkscape:deskcolor="#d1d1d1"
     inkscape:document-units="px"
     inkscape:zoom="5.09"
     inkscape:cx="61.29666"
     inkscape:cy="64.145383"
     inkscape:window-width="1512"
     inkscape:window-height="870"
     inkscape:window-x="0"
     inkscape:window-y="492"
     inkscape:window-maximized="0"
     inkscape:current-layer="svg1" />
  <defs
     id="defs1">
    <filter
       inkscape:label="Air Spray"
       inkscape:menu="Scatter"
       inkscape:menu-tooltip="Convert to small scattered particles with some thickness"
       width="2"
       height="2"
       y="-0.5"
       x="-0.5"
       style="color-interpolation-filters:sRGB;"
       id="filter44">
      <feGaussianBlur
         stdDeviation="0.01"
         result="result1"
         id="feGaussianBlur43" />
      <feBlend
         in2="result1"
         result="fbSourceGraphic"
         mode="multiply"
         id="feBlend43" />
      <feTurbulence
         baseFrequency="0.8"
         type="fractalNoise"
         seed="0"
         numOctaves="3"
         result="result3"
         id="feTurbulence43" />
      <feDisplacementMap
         in="fbSourceGraphic"
         xChannelSelector="R"
         yChannelSelector="G"
         scale="50"
         result="result2"
         in2="result3"
         id="feDisplacementMap43" />
      <feMorphology
         radius="1"
         operator="dilate"
         result="result4"
         id="feMorphology43" />
      <feBlend
         mode="screen"
         in2="result2"
         id="feBlend44" />
    </filter>
  </defs>
  <rect
     style="display:inline;fill:#000000;fill-opacity:1;opacity:0.73;stroke:none;stroke-width:0.264583;stroke-dasharray:none;stroke-opacity:1"
     id="rect121"
     width="34.126381"
     height="34.230267"
     x="-0.15582822"
     y="-0.15582822" />
  <g
     id="text1"
     style="font-size:3.88199px;opacity:0.95;fill:#ffe6d5;stroke-width:0.366802"
     transform="translate(-1.8521499)"
     aria-label="Space&#10;Shooter">
    <path
       style="font-family:Amalgama;-inkscape-font-specification:Amalgama"
       d="m 3.6230061,13.252536 v -0.644471 h 2.1419183 q 0.079611,0 0.1440582,-0.06066 0.064447,-0.06445 0.064447,-0.147849 0,-0.0834 -0.064447,-0.144059 -0.064447,-0.06445 -0.1440582,-0.06445 H 4.6465777 q -0.4397567,0 -0.7316641,-0.276743 -0.2919075,-0.280535 -0.2919075,-0.708918 0,-0.181969 0.064447,-0.352564 0.064447,-0.174386 0.1857593,-0.314653 0.1251032,-0.144059 0.3222355,-0.231252 0.2009233,-0.08719 0.4511297,-0.08719 H 6.807451 v 0.758201 H 4.7223978 q -0.1213122,0 -0.1933413,0.06824 -0.072029,0.06824 -0.072029,0.159223 0,0.09098 0.072029,0.159222 0.072029,0.06824 0.1933413,0.06824 h 1.0993917 q 0.3866826,0 0.686172,0.269161 0.2994895,0.265371 0.2994895,0.64068 0,0.356355 -0.2729524,0.633098 -0.2729524,0.276744 -0.7127091,0.276744 z m 3.3739951,0 v -1.895503 q 0,-0.470085 0.3639365,-0.803693 0.3677276,-0.333609 0.8870954,-0.333609 h 1.7059526 q 0.5193683,0 0.8833043,0.333609 0.367728,0.333608 0.367728,0.803693 0,0.470085 -0.367728,0.803693 -0.363936,0.333609 -0.8833043,0.333609 h -1.933413 v -0.758202 h 1.933413 q 0.1743863,0 0.2956983,-0.109939 0.121312,-0.11373 0.121312,-0.269161 0,-0.155431 -0.121312,-0.26537 -0.121312,-0.113731 -0.2956983,-0.113731 H 8.2480331 q -0.1743863,0 -0.2956985,0.113731 -0.1213121,0.109939 -0.1213121,0.26537 v 1.895503 z m 4.3975668,-2.274604 v -0.758201 h 2.994894 q 1.402672,0 1.402672,1.516402 0,1.516403 -1.402672,1.516403 h -1.914458 q -0.235042,0 -0.428383,-0.06824 -0.189551,-0.07203 -0.310863,-0.178178 -0.117521,-0.106148 -0.197132,-0.238833 -0.07961,-0.132685 -0.11373,-0.250206 -0.03033,-0.121312 -0.03033,-0.22367 0,-0.363936 0.295698,-0.64068 0.295699,-0.276743 0.784738,-0.276743 h 2.104009 v 0.720291 h -2.104009 q -0.106148,0 -0.178177,0.06066 -0.06824,0.05687 -0.06824,0.136476 0,0.0834 0.06824,0.144059 0.07203,0.05687 0.178177,0.05687 h 1.914458 q 0.250207,0 0.409429,-0.178178 0.159222,-0.181968 0.159222,-0.580024 0,-0.398055 -0.159222,-0.576232 -0.159222,-0.181969 -0.409429,-0.181969 z m 5.989789,2.274604 q -1.402672,0 -1.402672,-1.516403 0,-1.516402 1.402672,-1.516402 h 1.630133 v 0.758201 h -1.630133 q -0.250206,0 -0.409429,0.181969 -0.159222,0.178177 -0.159222,0.576232 0,0.398056 0.159222,0.580024 0.159223,0.178178 0.409429,0.178178 h 1.630133 v 0.758201 z m 3.222355,0 q -1.402672,0 -1.402672,-1.516403 0,-1.516402 1.402672,-1.516402 h 1.914458 q 0.235042,0 0.424593,0.07203 0.193341,0.06824 0.310862,0.174387 0.121312,0.106148 0.200923,0.238833 0.07961,0.132685 0.10994,0.253997 0.03412,0.117521 0.03412,0.219879 0,0.363936 -0.295699,0.64068 -0.295698,0.276743 -0.784738,0.276743 h -2.104008 v -0.720291 h 2.104008 q 0.106148,0 0.174386,-0.05687 0.07203,-0.06066 0.07203,-0.140267 0,-0.0834 -0.07203,-0.140268 -0.06824,-0.06066 -0.174386,-0.06066 h -1.914458 q -0.250206,0 -0.409429,0.181969 -0.159222,0.178177 -0.159222,0.576232 0,0.398056 0.159222,0.580024 0.159223,0.178178 0.409429,0.178178 h 2.994895 v 0.758201 z"
       id="path1" />
    <path
       style="font-family:Amalgama;-inkscape-font-specification:Amalgama"
       d="m 3.6230061,18.15724 v -0.644471 h 2.1419183 q 0.079611,0 0.1440582,-0.06066 0.064447,-0.06445 0.064447,-0.14785 0,-0.0834 -0.064447,-0.144058 -0.064447,-0.06445 -0.1440582,-0.06445 H 4.6465777 q -0.4397567,0 -0.7316641,-0.276743 -0.2919075,-0.280535 -0.2919075,-0.708918 0,-0.181969 0.064447,-0.352564 0.064447,-0.174386 0.1857593,-0.314654 0.1251032,-0.144058 0.3222355,-0.231251 0.2009233,-0.08719 0.4511297,-0.08719 H 6.807451 v 0.758201 H 4.7223978 q -0.1213122,0 -0.1933413,0.06824 -0.072029,0.06824 -0.072029,0.159223 0,0.09098 0.072029,0.159222 0.072029,0.06824 0.1933413,0.06824 h 1.0993917 q 0.3866826,0 0.686172,0.269161 0.2994895,0.265371 0.2994895,0.64068 0,0.356355 -0.2729524,0.633098 -0.2729524,0.276744 -0.7127091,0.276744 z m 3.3739951,0 v -3.032805 h 0.8340213 v 1.137302 h 1.364762 V 15.124435 H 10.029806 V 18.15724 H 9.1957845 v -1.137302 h -1.364762 v 1.137302 z m 4.2155978,-2.092636 q -0.159222,0.178178 -0.159222,0.576233 0,0.398056 0.159222,0.580024 0.159223,0.178177 0.409429,0.178177 h 1.592222 q 0.250207,0 0.409429,-0.178177 0.159222,-0.181968 0.159222,-0.580024 0,-0.398055 -0.159222,-0.576233 -0.159222,-0.181968 -0.409429,-0.181968 h -1.592222 q -0.250206,0 -0.409429,0.181968 z m 0.409429,2.092636 q -1.402672,0 -1.402672,-1.516403 0,-1.516402 1.402672,-1.516402 h 1.592222 q 1.402673,0 1.402673,1.516402 0,1.516403 -1.402673,1.516403 z m 4.177689,-2.092636 q -0.159223,0.178178 -0.159223,0.576233 0,0.398056 0.159223,0.580024 0.159222,0.178177 0.409428,0.178177 h 1.592223 q 0.250206,0 0.409428,-0.178177 0.159222,-0.181968 0.159222,-0.580024 0,-0.398055 -0.159222,-0.576233 -0.159222,-0.181968 -0.409428,-0.181968 h -1.592223 q -0.250206,0 -0.409428,0.181968 z m 0.409428,2.092636 q -1.402672,0 -1.402672,-1.516403 0,-1.516402 1.402672,-1.516402 h 1.592223 q 1.402672,0 1.402672,1.516402 0,1.516403 -1.402672,1.516403 z m 3.184445,-2.274604 v -0.758201 h 3.032805 v 0.758201 h -1.099392 v 2.274604 h -0.834021 v -2.274604 z m 4.625027,2.274604 q -1.402672,0 -1.402672,-1.516403 0,-1.516402 1.402672,-1.516402 h 1.914458 q 0.235043,0 0.424593,0.07203 0.193341,0.06824 0.310862,0.174386 0.121313,0.106149 0.200924,0.238834 0.07961,0.132685 0.109939,0.253997 0.03412,0.117521 0.03412,0.219878 0,0.363937 -0.295699,0.64068 -0.295698,0.276744 -0.784738,0.276744 h -2.104008 v -0.720291 h 2.104008 q 0.106148,0 0.174386,-0.05686 0.07203,-0.06066 0.07203,-0.140268 0,-0.0834 -0.07203,-0.140267 -0.06824,-0.06066 -0.174386,-0.06066 h -1.914458 q -0.250206,0 -0.409428,0.181968 -0.159223,0.178178 -0.159223,0.576233 0,0.398056 0.159223,0.580024 0.159222,0.178177 0.409428,0.178177 h 2.994895 v 0.758202 z m 3.184446,0 v -1.895503 q 0,-0.470085 0.363937,-0.803693 0.367727,-0.333609 0.887095,-0.333609 h 1.933413 q 0.250207,0 0.447339,0.08719 0.200923,0.08719 0.322235,0.231251 0.125104,0.140268 0.189551,0.314654 0.06445,0.170595 0.06445,0.352564 0,0.428383 -0.291908,0.708918 -0.291907,0.276743 -0.731664,0.276743 h -1.118347 q -0.07961,0 -0.144058,0.06445 -0.06445,0.06066 -0.06445,0.144058 0,0.0834 0.06445,0.14785 0.06445,0.06066 0.144058,0.06066 h 2.141919 v 0.644471 h -2.198784 q -0.439756,0 -0.712709,-0.276744 -0.272952,-0.276743 -0.272952,-0.633098 0,-0.375309 0.299489,-0.64068 0.29949,-0.269161 0.686172,-0.269161 h 1.099392 q 0.121312,0 0.193341,-0.06824 0.07203,-0.06824 0.07203,-0.159222 0,-0.09098 -0.07203,-0.159223 -0.07203,-0.06824 -0.193341,-0.06824 h -1.857593 q -0.174386,0 -0.295698,0.11373 -0.121312,0.10994 -0.121312,0.265371 v 1.895503 z"
       id="path2" />
  </g>
  <g
     id="text4"
     style="font-size:3.88199px;opacity:0.95;fill:#ffccaa;stroke-width:0.366802"
     transform="translate(-1.8521499)"
     aria-label="Space&#10;Shooter">
    <path
       style="font-family:Amalgama;-inkscape-font-specification:Amalgama"
       d="m 4.1521726,13.781702 v -0.644471 h 2.1419183 q 0.079611,0 0.1440582,-0.06066 0.064447,-0.06445 0.064447,-0.147849 0,-0.0834 -0.064447,-0.144058 Q 6.373702,12.72022 6.2940909,12.72022 H 5.1757441 q -0.4397566,0 -0.7316641,-0.276743 -0.2919074,-0.280534 -0.2919074,-0.708918 0,-0.181968 0.064447,-0.352564 0.064447,-0.174386 0.1857592,-0.314653 0.1251032,-0.144058 0.3222355,-0.231251 0.2009234,-0.08719 0.4511297,-0.08719 h 2.1608734 v 0.758202 H 5.2515643 q -0.1213122,0 -0.1933413,0.06824 -0.072029,0.06824 -0.072029,0.159222 0,0.09098 0.072029,0.159222 0.072029,0.06824 0.1933413,0.06824 h 1.0993916 q 0.3866826,0 0.6861721,0.269162 0.2994895,0.26537 0.2994895,0.64068 0,0.356354 -0.2729525,0.633098 -0.2729524,0.276743 -0.7127091,0.276743 z m 3.373995,0 v -1.895503 q 0,-0.470085 0.3639366,-0.803693 0.3677276,-0.333609 0.8870954,-0.333609 h 1.7059524 q 0.519368,0 0.883305,0.333609 0.367727,0.333608 0.367727,0.803693 0,0.470085 -0.367727,0.803693 -0.363937,0.333609 -0.883305,0.333609 H 8.5497392 V 12.2653 h 1.9334128 q 0.174386,0 0.295699,-0.109939 0.121312,-0.113731 0.121312,-0.269162 0,-0.155431 -0.121312,-0.26537 -0.121313,-0.11373 -0.295699,-0.11373 H 8.7771996 q -0.1743863,0 -0.2956985,0.11373 -0.1213122,0.109939 -0.1213122,0.26537 v 1.895503 z m 4.3975664,-2.274603 v -0.758202 h 2.994895 q 1.402672,0 1.402672,1.516403 0,1.516402 -1.402672,1.516402 h -1.914458 q -0.235043,0 -0.428384,-0.06824 -0.18955,-0.07203 -0.310862,-0.178177 -0.117521,-0.106148 -0.197133,-0.238834 -0.07961,-0.132685 -0.11373,-0.250206 -0.03033,-0.121312 -0.03033,-0.223669 0,-0.363937 0.295699,-0.64068 0.295698,-0.276744 0.784738,-0.276744 h 2.104008 v 0.720291 h -2.104008 q -0.106148,0 -0.178177,0.06066 -0.06824,0.05686 -0.06824,0.136477 0,0.0834 0.06824,0.144058 0.07203,0.05687 0.178177,0.05687 h 1.914458 q 0.250206,0 0.409428,-0.178177 0.159223,-0.181969 0.159223,-0.580024 0,-0.398056 -0.159223,-0.576233 -0.159222,-0.181968 -0.409428,-0.181968 z m 5.98979,2.274603 q -1.402673,0 -1.402673,-1.516402 0,-1.516403 1.402673,-1.516403 h 1.630132 v 0.758202 h -1.630132 q -0.250207,0 -0.409429,0.181968 -0.159222,0.178177 -0.159222,0.576233 0,0.398055 0.159222,0.580024 0.159222,0.178177 0.409429,0.178177 h 1.630132 v 0.758201 z m 3.222354,0 q -1.402672,0 -1.402672,-1.516402 0,-1.516403 1.402672,-1.516403 h 1.914458 q 0.235043,0 0.424593,0.07203 0.193341,0.06824 0.310862,0.174387 0.121313,0.106148 0.200924,0.238833 0.07961,0.132685 0.109939,0.253998 0.03412,0.117521 0.03412,0.219878 0,0.363936 -0.295698,0.64068 -0.295699,0.276743 -0.784739,0.276743 h -2.104008 v -0.720291 h 2.104008 q 0.106149,0 0.174387,-0.05687 0.07203,-0.06066 0.07203,-0.140267 0,-0.0834 -0.07203,-0.140267 -0.06824,-0.06066 -0.174387,-0.06066 h -1.914458 q -0.250206,0 -0.409428,0.181968 -0.159222,0.178177 -0.159222,0.576233 0,0.398055 0.159222,0.580024 0.159222,0.178177 0.409428,0.178177 h 2.994895 v 0.758201 z"
       id="path3" />
    <path
       style="font-family:Amalgama;-inkscape-font-specification:Amalgama"
       d="m 4.1521726,18.686406 v -0.644471 h 2.1419183 q 0.079611,0 0.1440582,-0.06066 0.064447,-0.06445 0.064447,-0.147849 0,-0.0834 -0.064447,-0.144059 -0.064447,-0.06445 -0.1440582,-0.06445 H 5.1757441 q -0.4397566,0 -0.7316641,-0.276743 -0.2919074,-0.280535 -0.2919074,-0.708918 0,-0.181969 0.064447,-0.352564 0.064447,-0.174386 0.1857592,-0.314653 0.1251032,-0.144059 0.3222355,-0.231252 0.2009234,-0.08719 0.4511297,-0.08719 h 2.1608734 v 0.758201 H 5.2515643 q -0.1213122,0 -0.1933413,0.06824 -0.072029,0.06824 -0.072029,0.159223 0,0.09098 0.072029,0.159222 0.072029,0.06824 0.1933413,0.06824 h 1.0993916 q 0.3866826,0 0.6861721,0.269161 0.2994895,0.265371 0.2994895,0.64068 0,0.356355 -0.2729525,0.633098 -0.2729524,0.276744 -0.7127091,0.276744 z m 3.373995,0 v -3.032805 h 0.8340213 v 1.137302 H 9.724951 v -1.137302 h 0.834021 v 3.032805 H 9.724951 V 17.549104 H 8.3601889 v 1.137302 z m 4.2155984,-2.092635 q -0.159222,0.178177 -0.159222,0.576233 0,0.398055 0.159222,0.580023 0.159222,0.178178 0.409428,0.178178 h 1.592223 q 0.250206,0 0.409429,-0.178178 0.159222,-0.181968 0.159222,-0.580023 0,-0.398056 -0.159222,-0.576233 -0.159223,-0.181969 -0.409429,-0.181969 h -1.592223 q -0.250206,0 -0.409428,0.181969 z m 0.409428,2.092635 q -1.402672,0 -1.402672,-1.516402 0,-1.516403 1.402672,-1.516403 h 1.592223 q 1.402672,0 1.402672,1.516403 0,1.516402 -1.402672,1.516402 z m 4.177689,-2.092635 q -0.159222,0.178177 -0.159222,0.576233 0,0.398055 0.159222,0.580023 0.159222,0.178178 0.409429,0.178178 h 1.592222 q 0.250206,0 0.409429,-0.178178 0.159222,-0.181968 0.159222,-0.580023 0,-0.398056 -0.159222,-0.576233 -0.159223,-0.181969 -0.409429,-0.181969 h -1.592222 q -0.250207,0 -0.409429,0.181969 z m 0.409429,2.092635 q -1.402673,0 -1.402673,-1.516402 0,-1.516403 1.402673,-1.516403 h 1.592222 q 1.402672,0 1.402672,1.516403 0,1.516402 -1.402672,1.516402 z m 3.184445,-2.274604 v -0.758201 h 3.032804 v 0.758201 H 21.85617 v 2.274604 h -0.834022 v -2.274604 z m 4.625027,2.274604 q -1.402672,0 -1.402672,-1.516402 0,-1.516403 1.402672,-1.516403 h 1.914458 q 0.235042,0 0.424592,0.07203 0.193342,0.06824 0.310863,0.174387 0.121312,0.106148 0.200923,0.238833 0.07961,0.132685 0.109939,0.253997 0.03412,0.117522 0.03412,0.219879 0,0.363936 -0.295698,0.64068 -0.295699,0.276743 -0.784738,0.276743 h -2.104009 v -0.720291 h 2.104009 q 0.106148,0 0.174386,-0.05686 0.07203,-0.06066 0.07203,-0.140267 0,-0.0834 -0.07203,-0.140268 -0.06824,-0.06066 -0.174386,-0.06066 h -1.914458 q -0.250207,0 -0.409429,0.181969 -0.159222,0.178177 -0.159222,0.576233 0,0.398055 0.159222,0.580023 0.159222,0.178178 0.409429,0.178178 h 2.994894 v 0.758201 z m 3.184446,0 v -1.895503 q 0,-0.470085 0.363936,-0.803693 0.367728,-0.333609 0.887096,-0.333609 h 1.933413 q 0.250206,0 0.447338,0.08719 0.200924,0.08719 0.322236,0.231252 0.125103,0.140267 0.18955,0.314653 0.06445,0.170595 0.06445,0.352564 0,0.428383 -0.291907,0.708918 -0.291908,0.276743 -0.731664,0.276743 h -1.118347 q -0.07961,0 -0.144058,0.06445 -0.06445,0.06066 -0.06445,0.144059 0,0.0834 0.06445,0.147849 0.06445,0.06066 0.144058,0.06066 h 2.141918 v 0.644471 h -2.198783 q -0.439757,0 -0.712709,-0.276744 -0.272953,-0.276743 -0.272953,-0.633098 0,-0.375309 0.29949,-0.64068 0.299489,-0.269161 0.686172,-0.269161 h 1.099391 q 0.121313,0 0.193342,-0.06824 0.07203,-0.06824 0.07203,-0.159222 0,-0.09098 -0.07203,-0.159223 -0.07203,-0.06824 -0.193342,-0.06824 h -1.857592 q -0.174387,0 -0.295699,0.113731 -0.121312,0.109939 -0.121312,0.26537 v 1.895503 z"
       id="path4" />
  </g>
  <g
     id="text6"
     style="font-size:3.88199px;opacity:0.95;fill:#ffb380;stroke-width:0.366802"
     transform="translate(-1.8521499)"
     aria-label="Space&#10;Shooter">
    <path
       style="font-family:Amalgama;-inkscape-font-specification:Amalgama"
       d="m 4.6813393,14.310868 v -0.644471 h 2.1419183 q 0.079611,0 0.1440582,-0.06066 0.064447,-0.06445 0.064447,-0.147849 0,-0.0834 -0.064447,-0.144058 -0.064447,-0.06445 -0.1440582,-0.06445 H 5.7049108 q -0.4397566,0 -0.7316641,-0.276744 -0.2919074,-0.280534 -0.2919074,-0.708918 0,-0.181968 0.064447,-0.352563 0.064447,-0.174387 0.1857592,-0.314654 0.1251032,-0.144058 0.3222355,-0.231251 0.2009234,-0.08719 0.4511297,-0.08719 h 2.1608733 v 0.758201 H 5.780731 q -0.1213122,0 -0.1933413,0.06824 -0.072029,0.06824 -0.072029,0.159222 0,0.09098 0.072029,0.159222 0.072029,0.06824 0.1933413,0.06824 h 1.0993916 q 0.3866826,0 0.6861721,0.269162 0.2994894,0.26537 0.2994894,0.64068 0,0.356354 -0.2729524,0.633098 -0.2729524,0.276743 -0.7127091,0.276743 z m 3.373995,0 v -1.895503 q 0,-0.470084 0.3639366,-0.803693 0.3677276,-0.333608 0.8870953,-0.333608 h 1.7059528 q 0.519368,0 0.883304,0.333608 0.367728,0.333609 0.367728,0.803693 0,0.470085 -0.367728,0.803694 -0.363936,0.333608 -0.883304,0.333608 H 9.0789059 v -0.758201 h 1.9334131 q 0.174386,0 0.295698,-0.109939 0.121313,-0.11373 0.121313,-0.269162 0,-0.155431 -0.121313,-0.26537 -0.121312,-0.11373 -0.295698,-0.11373 H 9.3063662 q -0.1743862,0 -0.2956984,0.11373 -0.1213122,0.109939 -0.1213122,0.26537 v 1.895503 z m 4.3975667,-2.274603 v -0.758201 h 2.994894 q 1.402673,0 1.402673,1.516402 0,1.516402 -1.402673,1.516402 h -1.914457 q -0.235043,0 -0.428384,-0.06824 -0.18955,-0.07203 -0.310863,-0.178177 -0.117521,-0.106148 -0.197132,-0.238833 -0.07961,-0.132686 -0.11373,-0.250207 -0.03033,-0.121312 -0.03033,-0.223669 0,-0.363937 0.295698,-0.64068 0.295699,-0.276744 0.784739,-0.276744 h 2.104008 v 0.720291 h -2.104008 q -0.106149,0 -0.178178,0.06066 -0.06824,0.05687 -0.06824,0.136476 0,0.0834 0.06824,0.144058 0.07203,0.05687 0.178178,0.05687 h 1.914457 q 0.250207,0 0.409429,-0.178177 0.159222,-0.181968 0.159222,-0.580024 0,-0.398056 -0.159222,-0.576233 -0.159222,-0.181968 -0.409429,-0.181968 z m 5.989789,2.274603 q -1.402672,0 -1.402672,-1.516402 0,-1.516402 1.402672,-1.516402 h 1.630133 v 0.758201 H 18.44269 q -0.250206,0 -0.409428,0.181968 -0.159223,0.178177 -0.159223,0.576233 0,0.398056 0.159223,0.580024 0.159222,0.178177 0.409428,0.178177 h 1.630133 v 0.758201 z m 3.222355,0 q -1.402672,0 -1.402672,-1.516402 0,-1.516402 1.402672,-1.516402 h 1.914458 q 0.235042,0 0.424593,0.07203 0.193341,0.06824 0.310862,0.174386 0.121312,0.106148 0.200923,0.238833 0.07961,0.132686 0.10994,0.253998 0.03412,0.117521 0.03412,0.219878 0,0.363937 -0.295699,0.64068 -0.295698,0.276743 -0.784738,0.276743 H 21.475495 V 12.43432 h 2.104008 q 0.106148,0 0.174386,-0.05687 0.07203,-0.06066 0.07203,-0.140267 0,-0.0834 -0.07203,-0.140267 -0.06824,-0.06066 -0.174386,-0.06066 h -1.914458 q -0.250206,0 -0.409429,0.181968 -0.159222,0.178177 -0.159222,0.576233 0,0.398056 0.159222,0.580024 0.159223,0.178177 0.409429,0.178177 h 2.994895 v 0.758201 z"
       id="path5" />
    <path
       style="font-family:Amalgama;-inkscape-font-specification:Amalgama"
       d="m 4.6813393,19.215572 v -0.644471 h 2.1419183 q 0.079611,0 0.1440582,-0.06066 0.064447,-0.06445 0.064447,-0.147849 0,-0.0834 -0.064447,-0.144058 -0.064447,-0.06445 -0.1440582,-0.06445 H 5.7049108 q -0.4397566,0 -0.7316641,-0.276743 -0.2919074,-0.280534 -0.2919074,-0.708918 0,-0.181968 0.064447,-0.352564 0.064447,-0.174386 0.1857592,-0.314653 0.1251032,-0.144058 0.3222355,-0.231251 0.2009234,-0.08719 0.4511297,-0.08719 h 2.1608733 v 0.758202 H 5.780731 q -0.1213122,0 -0.1933413,0.06824 -0.072029,0.06824 -0.072029,0.159222 0,0.09098 0.072029,0.159222 0.072029,0.06824 0.1933413,0.06824 h 1.0993916 q 0.3866826,0 0.6861721,0.269162 0.2994894,0.26537 0.2994894,0.64068 0,0.356354 -0.2729524,0.633098 -0.2729524,0.276743 -0.7127091,0.276743 z m 3.373995,0 v -3.032805 h 0.8340213 v 1.137302 h 1.3647624 v -1.137302 h 0.834021 v 3.032805 H 10.254118 V 18.07827 H 8.8893556 v 1.137302 z m 4.2155987,-2.092635 q -0.159223,0.178177 -0.159223,0.576233 0,0.398055 0.159223,0.580024 0.159222,0.178177 0.409428,0.178177 h 1.592223 q 0.250206,0 0.409428,-0.178177 0.159222,-0.181969 0.159222,-0.580024 0,-0.398056 -0.159222,-0.576233 -0.159222,-0.181968 -0.409428,-0.181968 h -1.592223 q -0.250206,0 -0.409428,0.181968 z m 0.409428,2.092635 q -1.402672,0 -1.402672,-1.516402 0,-1.516403 1.402672,-1.516403 h 1.592223 q 1.402672,0 1.402672,1.516403 0,1.516402 -1.402672,1.516402 z m 4.177689,-2.092635 q -0.159223,0.178177 -0.159223,0.576233 0,0.398055 0.159223,0.580024 0.159222,0.178177 0.409428,0.178177 h 1.592223 q 0.250206,0 0.409428,-0.178177 0.159223,-0.181969 0.159223,-0.580024 0,-0.398056 -0.159223,-0.576233 -0.159222,-0.181968 -0.409428,-0.181968 h -1.592223 q -0.250206,0 -0.409428,0.181968 z m 0.409428,2.092635 q -1.402672,0 -1.402672,-1.516402 0,-1.516403 1.402672,-1.516403 h 1.592223 q 1.402672,0 1.402672,1.516403 0,1.516402 -1.402672,1.516402 z m 3.184445,-2.274603 v -0.758202 h 3.032805 v 0.758202 h -1.099392 v 2.274603 h -0.834021 v -2.274603 z m 4.625027,2.274603 q -1.402672,0 -1.402672,-1.516402 0,-1.516403 1.402672,-1.516403 h 1.914458 q 0.235043,0 0.424593,0.07203 0.193341,0.06824 0.310862,0.174386 0.121313,0.106148 0.200924,0.238833 0.07961,0.132685 0.109939,0.253998 0.03412,0.117521 0.03412,0.219878 0,0.363936 -0.295698,0.64068 -0.295699,0.276743 -0.784739,0.276743 H 24.8874 v -0.720291 h 2.104008 q 0.106149,0 0.174387,-0.05686 0.07203,-0.06066 0.07203,-0.140267 0,-0.0834 -0.07203,-0.140267 -0.06824,-0.06066 -0.174387,-0.06066 H 25.07695 q -0.250206,0 -0.409428,0.181968 -0.159222,0.178177 -0.159222,0.576233 0,0.398055 0.159222,0.580024 0.159222,0.178177 0.409428,0.178177 h 2.994895 v 0.758201 z m 3.184446,0 v -1.895503 q 0,-0.470085 0.363937,-0.803693 0.367728,-0.333609 0.887095,-0.333609 h 1.933413 q 0.250207,0 0.447339,0.08719 0.200923,0.08719 0.322235,0.231251 0.125104,0.140267 0.189551,0.314653 0.06445,0.170596 0.06445,0.352564 0,0.428384 -0.291908,0.708918 -0.291907,0.276743 -0.731664,0.276743 h -1.118346 q -0.07961,0 -0.144059,0.06445 -0.06445,0.06066 -0.06445,0.144058 0,0.0834 0.06445,0.147849 0.06445,0.06066 0.144059,0.06066 h 2.141918 v 0.644471 h -2.198784 q -0.439756,0 -0.712709,-0.276743 -0.272952,-0.276744 -0.272952,-0.633098 0,-0.37531 0.299489,-0.64068 0.29949,-0.269162 0.686172,-0.269162 h 1.099392 q 0.121312,0 0.193341,-0.06824 0.07203,-0.06824 0.07203,-0.159222 0,-0.09098 -0.07203,-0.159222 -0.07203,-0.06824 -0.193341,-0.06824 h -1.857593 q -0.174386,0 -0.295698,0.11373 -0.121312,0.109939 -0.121312,0.26537 v 1.895503 z"
       id="path6" />
  </g>
  <g
     id="text8"
     style="font-size:3.88199px;opacity:0.95;fill:#ff9955;stroke-width:0.366802"
     transform="translate(-1.8521499)"
     aria-label="Space&#10;Shooter">
    <path
       style="font-family:Amalgama;-inkscape-font-specification:Amalgama"
       d="m 5.210506,14.840035 v -0.644471 h 2.1419182 q 0.079611,0 0.1440583,-0.06066 0.064447,-0.06445 0.064447,-0.147849 0,-0.0834 -0.064447,-0.144058 -0.064447,-0.06445 -0.1440583,-0.06445 H 6.2340775 q -0.4397566,0 -0.7316641,-0.276744 -0.2919074,-0.280534 -0.2919074,-0.708918 0,-0.181968 0.064447,-0.352563 0.064447,-0.174387 0.1857592,-0.314654 0.1251032,-0.144058 0.3222355,-0.231251 0.2009233,-0.08719 0.4511297,-0.08719 h 2.1608733 v 0.758201 H 6.3098976 q -0.1213121,0 -0.1933412,0.06824 -0.072029,0.06824 -0.072029,0.159222 0,0.09098 0.072029,0.159223 0.072029,0.06824 0.1933412,0.06824 h 1.0993917 q 0.3866826,0 0.6861721,0.269161 0.2994894,0.26537 0.2994894,0.64068 0,0.356355 -0.2729524,0.633098 -0.2729524,0.276743 -0.7127091,0.276743 z m 3.373995,0 v -1.895502 q 0,-0.470085 0.3639366,-0.803694 0.3677276,-0.333608 0.8870953,-0.333608 h 1.7059531 q 0.519367,0 0.883304,0.333608 0.367727,0.333609 0.367727,0.803694 0,0.470084 -0.367727,0.803693 -0.363937,0.333608 -0.883304,0.333608 H 9.6080726 v -0.758201 h 1.9334134 q 0.174386,0 0.295698,-0.109939 0.121312,-0.11373 0.121312,-0.269161 0,-0.155432 -0.121312,-0.265371 -0.121312,-0.11373 -0.295698,-0.11373 H 9.8355329 q -0.1743862,0 -0.2956984,0.11373 -0.1213122,0.109939 -0.1213122,0.265371 v 1.895502 z m 4.397567,-2.274603 v -0.758201 h 2.994894 q 1.402672,0 1.402672,1.516402 0,1.516402 -1.402672,1.516402 h -1.914458 q -0.235042,0 -0.428383,-0.06824 -0.189551,-0.07203 -0.310863,-0.178177 -0.117521,-0.106148 -0.197132,-0.238833 -0.07961,-0.132686 -0.11373,-0.250207 -0.03033,-0.121312 -0.03033,-0.223669 0,-0.363937 0.295698,-0.64068 0.295698,-0.276743 0.784738,-0.276743 h 2.104008 v 0.720291 h -2.104008 q -0.106148,0 -0.178177,0.06066 -0.06824,0.05687 -0.06824,0.136476 0,0.0834 0.06824,0.144058 0.07203,0.05687 0.178177,0.05687 h 1.914458 q 0.250207,0 0.409429,-0.178177 0.159222,-0.181968 0.159222,-0.580024 0,-0.398055 -0.159222,-0.576233 -0.159222,-0.181968 -0.409429,-0.181968 z m 5.989789,2.274603 q -1.402672,0 -1.402672,-1.516402 0,-1.516402 1.402672,-1.516402 h 1.630132 v 0.758201 h -1.630132 q -0.250206,0 -0.409429,0.181968 -0.159222,0.178178 -0.159222,0.576233 0,0.398056 0.159222,0.580024 0.159223,0.178177 0.409429,0.178177 h 1.630132 v 0.758201 z m 3.222355,0 q -1.402672,0 -1.402672,-1.516402 0,-1.516402 1.402672,-1.516402 h 1.914458 q 0.235042,0 0.424592,0.07203 0.193342,0.06824 0.310863,0.174386 0.121312,0.106148 0.200923,0.238834 0.07961,0.132685 0.109939,0.253997 0.03412,0.117521 0.03412,0.219878 0,0.363937 -0.295698,0.64068 -0.295698,0.276744 -0.784738,0.276744 h -2.104008 v -0.720291 h 2.104008 q 0.106148,0 0.174386,-0.05687 0.07203,-0.06066 0.07203,-0.140267 0,-0.0834 -0.07203,-0.140267 -0.06824,-0.06066 -0.174386,-0.06066 h -1.914458 q -0.250207,0 -0.409429,0.181968 -0.159222,0.178178 -0.159222,0.576233 0,0.398056 0.159222,0.580024 0.159222,0.178177 0.409429,0.178177 h 2.994894 v 0.758201 z"
       id="path7" />
    <path
       style="font-family:Amalgama;-inkscape-font-specification:Amalgama"
       d="m 5.210506,19.744739 v -0.644471 h 2.1419182 q 0.079611,0 0.1440583,-0.06066 0.064447,-0.06445 0.064447,-0.147849 0,-0.0834 -0.064447,-0.144058 -0.064447,-0.06445 -0.1440583,-0.06445 H 6.2340775 q -0.4397566,0 -0.7316641,-0.276744 Q 5.210506,18.12598 5.210506,17.697596 q 0,-0.181968 0.064447,-0.352563 0.064447,-0.174387 0.1857592,-0.314654 0.1251032,-0.144058 0.3222355,-0.231251 0.2009233,-0.08719 0.4511297,-0.08719 h 2.1608733 v 0.758201 H 6.3098976 q -0.1213121,0 -0.1933412,0.06824 -0.072029,0.06824 -0.072029,0.159222 0,0.09098 0.072029,0.159222 0.072029,0.06824 0.1933412,0.06824 h 1.0993917 q 0.3866826,0 0.6861721,0.269162 0.2994894,0.26537 0.2994894,0.64068 0,0.356354 -0.2729524,0.633098 -0.2729524,0.276743 -0.7127091,0.276743 z m 3.373995,0 v -3.032804 h 0.8340213 v 1.137301 h 1.3647617 v -1.137301 h 0.834022 v 3.032804 H 10.783284 V 18.607438 H 9.4185223 v 1.137301 z m 4.215598,-2.092635 q -0.159222,0.178177 -0.159222,0.576233 0,0.398056 0.159222,0.580024 0.159222,0.178177 0.409429,0.178177 h 1.592222 q 0.250207,0 0.409429,-0.178177 0.159222,-0.181968 0.159222,-0.580024 0,-0.398056 -0.159222,-0.576233 -0.159222,-0.181968 -0.409429,-0.181968 h -1.592222 q -0.250207,0 -0.409429,0.181968 z m 0.409429,2.092635 q -1.402672,0 -1.402672,-1.516402 0,-1.516402 1.402672,-1.516402 h 1.592222 q 1.402672,0 1.402672,1.516402 0,1.516402 -1.402672,1.516402 z m 4.177688,-2.092635 q -0.159222,0.178177 -0.159222,0.576233 0,0.398056 0.159222,0.580024 0.159223,0.178177 0.409429,0.178177 h 1.592222 q 0.250207,0 0.409429,-0.178177 0.159222,-0.181968 0.159222,-0.580024 0,-0.398056 -0.159222,-0.576233 -0.159222,-0.181968 -0.409429,-0.181968 h -1.592222 q -0.250206,0 -0.409429,0.181968 z m 0.409429,2.092635 q -1.402672,0 -1.402672,-1.516402 0,-1.516402 1.402672,-1.516402 h 1.592222 q 1.402673,0 1.402673,1.516402 0,1.516402 -1.402673,1.516402 z m 3.184445,-2.274603 v -0.758201 h 3.032805 v 0.758201 h -1.099392 v 2.274603 h -0.834021 v -2.274603 z m 4.625027,2.274603 q -1.402672,0 -1.402672,-1.516402 0,-1.516402 1.402672,-1.516402 h 1.914458 q 0.235042,0 0.424593,0.07203 0.193341,0.06824 0.310862,0.174386 0.121312,0.106148 0.200923,0.238833 0.07961,0.132686 0.10994,0.253998 0.03412,0.117521 0.03412,0.219878 0,0.363937 -0.295699,0.64068 -0.295698,0.276743 -0.784738,0.276743 h -2.104008 v -0.720291 h 2.104008 q 0.106148,0 0.174386,-0.05686 0.07203,-0.06066 0.07203,-0.140267 0,-0.0834 -0.07203,-0.140267 -0.06824,-0.06066 -0.174386,-0.06066 h -1.914458 q -0.250206,0 -0.409429,0.181968 -0.159222,0.178177 -0.159222,0.576233 0,0.398056 0.159222,0.580024 0.159223,0.178177 0.409429,0.178177 h 2.994895 v 0.758201 z m 3.184446,0 v -1.895503 q 0,-0.470084 0.363937,-0.803693 0.367727,-0.333608 0.887095,-0.333608 h 1.933413 q 0.250206,0 0.447339,0.08719 0.200923,0.08719 0.322235,0.231251 0.125103,0.140267 0.18955,0.314654 0.06445,0.170595 0.06445,0.352563 0,0.428384 -0.291908,0.708918 -0.291907,0.276744 -0.731664,0.276744 h -1.118347 q -0.07961,0 -0.144058,0.06445 -0.06445,0.06066 -0.06445,0.144058 0,0.0834 0.06445,0.147849 0.06445,0.06066 0.144058,0.06066 h 2.141919 v 0.644471 h -2.198784 q -0.439756,0 -0.712709,-0.276743 -0.272952,-0.276744 -0.272952,-0.633098 0,-0.37531 0.299489,-0.64068 0.29949,-0.269162 0.686172,-0.269162 h 1.099392 q 0.121312,0 0.193341,-0.06824 0.07203,-0.06824 0.07203,-0.159222 0,-0.09098 -0.07203,-0.159222 -0.07203,-0.06824 -0.193341,-0.06824 h -1.857593 q -0.174386,0 -0.295698,0.11373 -0.121313,0.109939 -0.121313,0.26537 v 1.895503 z"
       id="path8" />
  </g>
  <g
     id="text10"
     style="font-size:3.88199px;opacity:0.95;fill:#ff7f2a;stroke-width:0.366802"
     transform="translate(-1.8521499)"
     aria-label="Space&#10;Shooter">
    <path
       style="font-family:Amalgama;-inkscape-font-specification:Amalgama"
       d="m 5.7396727,15.369202 v -0.644471 h 2.1419182 q 0.079611,0 0.1440583,-0.06066 0.064447,-0.06445 0.064447,-0.14785 0,-0.0834 -0.064447,-0.144058 -0.064447,-0.06445 -0.1440583,-0.06445 H 6.7632442 q -0.4397566,0 -0.7316641,-0.276743 -0.2919074,-0.280535 -0.2919074,-0.708918 0,-0.181969 0.064447,-0.352564 0.064447,-0.174386 0.1857592,-0.314654 0.1251032,-0.144058 0.3222355,-0.231251 0.2009233,-0.08719 0.4511297,-0.08719 h 2.1608733 v 0.758201 H 6.8390643 q -0.1213121,0 -0.1933412,0.06824 -0.072029,0.06824 -0.072029,0.159223 0,0.09098 0.072029,0.159222 0.072029,0.06824 0.1933412,0.06824 H 7.938456 q 0.3866826,0 0.6861721,0.269161 0.2994894,0.265371 0.2994894,0.64068 0,0.356355 -0.2729524,0.633098 -0.2729524,0.276744 -0.7127091,0.276744 z m 3.373995,0 v -1.895503 q 0,-0.470085 0.3639366,-0.803693 0.3677275,-0.333609 0.8870957,-0.333609 h 1.705952 q 0.519368,0 0.883305,0.333609 0.367727,0.333608 0.367727,0.803693 0,0.470084 -0.367727,0.803693 Q 12.59002,14.611 12.070652,14.611 h -1.933413 v -0.758201 h 1.933413 q 0.174387,0 0.295699,-0.109939 0.121312,-0.11373 0.121312,-0.269161 0,-0.155431 -0.121312,-0.265371 -0.121312,-0.11373 -0.295699,-0.11373 H 10.3647 q -0.174387,0 -0.295699,0.11373 -0.121312,0.10994 -0.121312,0.265371 v 1.895503 z m 4.3975663,-2.274604 v -0.758201 h 2.994895 q 1.402672,0 1.402672,1.516402 0,1.516403 -1.402672,1.516403 h -1.914458 q -0.235042,0 -0.428384,-0.06824 -0.18955,-0.07203 -0.310862,-0.178178 -0.117521,-0.106148 -0.197132,-0.238833 -0.07961,-0.132685 -0.113731,-0.250206 -0.03033,-0.121313 -0.03033,-0.22367 0,-0.363936 0.295699,-0.64068 0.295698,-0.276743 0.784738,-0.276743 h 2.104008 v 0.720291 h -2.104008 q -0.106148,0 -0.178177,0.06066 -0.06824,0.05687 -0.06824,0.136476 0,0.0834 0.06824,0.144058 0.07203,0.05687 0.178177,0.05687 h 1.914458 q 0.250206,0 0.409429,-0.178177 0.159222,-0.181968 0.159222,-0.580024 0,-0.398055 -0.159222,-0.576233 -0.159223,-0.181968 -0.409429,-0.181968 z m 5.98979,2.274604 q -1.402673,0 -1.402673,-1.516403 0,-1.516402 1.402673,-1.516402 h 1.630132 v 0.758201 h -1.630132 q -0.250207,0 -0.409429,0.181968 -0.159222,0.178178 -0.159222,0.576233 0,0.398056 0.159222,0.580024 0.159222,0.178177 0.409429,0.178177 h 1.630132 v 0.758202 z m 3.222355,0 q -1.402673,0 -1.402673,-1.516403 0,-1.516402 1.402673,-1.516402 h 1.914457 q 0.235043,0 0.424593,0.07203 0.193341,0.06824 0.310863,0.174386 0.121312,0.106149 0.200923,0.238834 0.07961,0.132685 0.109939,0.253997 0.03412,0.117521 0.03412,0.219878 0,0.363937 -0.295698,0.64068 -0.295699,0.276744 -0.784739,0.276744 h -2.104008 v -0.720291 h 2.104008 q 0.106149,0 0.174387,-0.05687 0.07203,-0.06066 0.07203,-0.140268 0,-0.0834 -0.07203,-0.140267 -0.06824,-0.06066 -0.174387,-0.06066 h -1.914457 q -0.250207,0 -0.409429,0.181968 -0.159222,0.178178 -0.159222,0.576233 0,0.398056 0.159222,0.580024 0.159222,0.178177 0.409429,0.178177 h 2.994894 v 0.758202 z"
       id="path9" />
    <path
       style="font-family:Amalgama;-inkscape-font-specification:Amalgama"
       d="m 5.7396727,20.273905 v -0.64447 h 2.1419182 q 0.079611,0 0.1440583,-0.06066 0.064447,-0.06445 0.064447,-0.147849 0,-0.0834 -0.064447,-0.144058 -0.064447,-0.06445 -0.1440583,-0.06445 H 6.7632442 q -0.4397566,0 -0.7316641,-0.276744 -0.2919074,-0.280534 -0.2919074,-0.708918 0,-0.181968 0.064447,-0.352563 0.064447,-0.174386 0.1857592,-0.314654 0.1251032,-0.144058 0.3222355,-0.231251 0.2009233,-0.08719 0.4511297,-0.08719 h 2.1608733 v 0.758201 H 6.8390643 q -0.1213121,0 -0.1933412,0.06824 -0.072029,0.06824 -0.072029,0.159222 0,0.09098 0.072029,0.159223 0.072029,0.06824 0.1933412,0.06824 H 7.938456 q 0.3866826,0 0.6861721,0.269161 0.2994894,0.265371 0.2994894,0.64068 0,0.356355 -0.2729524,0.633098 -0.2729524,0.276743 -0.7127091,0.276743 z m 3.373995,0 V 17.241101 H 9.947689 v 1.137302 h 1.364762 v -1.137302 h 0.834021 v 3.032804 H 11.312451 V 19.136604 H 9.947689 v 1.137301 z M 13.329266,18.18127 q -0.159222,0.178178 -0.159222,0.576233 0,0.398056 0.159222,0.580024 0.159222,0.178177 0.409429,0.178177 h 1.592222 q 0.250206,0 0.409429,-0.178177 0.159222,-0.181968 0.159222,-0.580024 0,-0.398055 -0.159222,-0.576233 -0.159223,-0.181968 -0.409429,-0.181968 h -1.592222 q -0.250207,0 -0.409429,0.181968 z m 0.409429,2.092635 q -1.402673,0 -1.402673,-1.516402 0,-1.516402 1.402673,-1.516402 h 1.592222 q 1.402672,0 1.402672,1.516402 0,1.516402 -1.402672,1.516402 z m 4.177688,-2.092635 q -0.159222,0.178178 -0.159222,0.576233 0,0.398056 0.159222,0.580024 0.159222,0.178177 0.409429,0.178177 h 1.592222 q 0.250207,0 0.409429,-0.178177 0.159222,-0.181968 0.159222,-0.580024 0,-0.398055 -0.159222,-0.576233 -0.159222,-0.181968 -0.409429,-0.181968 h -1.592222 q -0.250207,0 -0.409429,0.181968 z m 0.409429,2.092635 q -1.402672,0 -1.402672,-1.516402 0,-1.516402 1.402672,-1.516402 h 1.592222 q 1.402672,0 1.402672,1.516402 0,1.516402 -1.402672,1.516402 z m 3.184445,-2.274603 v -0.758201 h 3.032804 v 0.758201 H 23.44367 v 2.274603 h -0.834022 v -2.274603 z m 4.625027,2.274603 q -1.402672,0 -1.402672,-1.516402 0,-1.516402 1.402672,-1.516402 h 1.914458 q 0.235042,0 0.424592,0.07203 0.193342,0.06824 0.310863,0.174386 0.121312,0.106148 0.200923,0.238834 0.07961,0.132685 0.109939,0.253997 0.03412,0.117521 0.03412,0.219878 0,0.363937 -0.295698,0.64068 -0.295699,0.276744 -0.784738,0.276744 h -2.104008 v -0.720291 h 2.104008 q 0.106148,0 0.174386,-0.05687 0.07203,-0.06066 0.07203,-0.140268 0,-0.0834 -0.07203,-0.140267 -0.06824,-0.06066 -0.174386,-0.06066 h -1.914458 q -0.250207,0 -0.409429,0.181968 -0.159222,0.178178 -0.159222,0.576233 0,0.398056 0.159222,0.580024 0.159222,0.178177 0.409429,0.178177 h 2.994894 v 0.758201 z m 3.184446,0 v -1.895502 q 0,-0.470085 0.363936,-0.803694 0.367728,-0.333608 0.887096,-0.333608 h 1.933413 q 0.250206,0 0.447338,0.08719 0.200924,0.08719 0.322236,0.231251 0.125103,0.140268 0.18955,0.314654 0.06445,0.170595 0.06445,0.352563 0,0.428384 -0.291907,0.708918 -0.291908,0.276744 -0.731664,0.276744 h -1.118347 q -0.07961,0 -0.144058,0.06445 -0.06445,0.06066 -0.06445,0.144058 0,0.0834 0.06445,0.147849 0.06445,0.06066 0.144058,0.06066 h 2.141918 v 0.64447 h -2.198783 q -0.439757,0 -0.712709,-0.276743 -0.272953,-0.276743 -0.272953,-0.633098 0,-0.375309 0.29949,-0.64068 0.299489,-0.269161 0.686172,-0.269161 h 1.099392 q 0.121312,0 0.193341,-0.06824 0.07203,-0.06824 0.07203,-0.159223 0,-0.09098 -0.07203,-0.159222 -0.07203,-0.06824 -0.193341,-0.06824 h -1.857593 q -0.174387,0 -0.295699,0.11373 -0.121312,0.109939 -0.121312,0.265371 v 1.895502 z"
       id="path10" />
  </g>
  <g
     id="text12"
     style="font-size:3.88199px;opacity:0.95;fill:#ff6600;stroke-width:0.366802"
     transform="translate(-1.8521499)"
     aria-label="Space&#10;Shooter">
    <path
       style="font-family:Amalgama;-inkscape-font-specification:Amalgama"
       d="m 6.2688394,15.898369 v -0.644471 h 2.1419182 q 0.079611,0 0.1440583,-0.06066 0.064447,-0.06445 0.064447,-0.147849 0,-0.0834 -0.064447,-0.144059 -0.064447,-0.06445 -0.1440583,-0.06445 H 7.2924109 q -0.4397566,0 -0.7316641,-0.276743 -0.2919074,-0.280535 -0.2919074,-0.708918 0,-0.181969 0.064447,-0.352564 0.064447,-0.174386 0.1857592,-0.314653 0.1251032,-0.144059 0.3222355,-0.231252 0.2009233,-0.08719 0.4511297,-0.08719 h 2.1608733 v 0.758201 H 7.368231 q -0.1213121,0 -0.1933413,0.06824 -0.072029,0.06824 -0.072029,0.159223 0,0.09098 0.072029,0.159222 0.072029,0.06824 0.1933413,0.06824 h 1.0993917 q 0.3866826,0 0.6861721,0.269161 0.2994894,0.265371 0.2994894,0.64068 0,0.356355 -0.2729524,0.633098 -0.2729524,0.276744 -0.7127091,0.276744 z m 3.373995,0 v -1.895503 q 0,-0.470085 0.3639366,-0.803693 0.367728,-0.333609 0.887095,-0.333609 h 1.705953 q 0.519368,0 0.883304,0.333609 0.367728,0.333608 0.367728,0.803693 0,0.470085 -0.367728,0.803693 -0.363936,0.333609 -0.883304,0.333609 h -1.933413 v -0.758201 h 1.933413 q 0.174386,0 0.295698,-0.10994 0.121313,-0.11373 0.121313,-0.269161 0,-0.155431 -0.121313,-0.26537 -0.121312,-0.113731 -0.295698,-0.113731 h -1.705953 q -0.174386,0 -0.295698,0.113731 -0.121312,0.109939 -0.121312,0.26537 v 1.895503 z m 4.3975666,-2.274604 v -0.758201 h 2.994895 q 1.402672,0 1.402672,1.516403 0,1.516402 -1.402672,1.516402 h -1.914458 q -0.235043,0 -0.428384,-0.06824 -0.18955,-0.07203 -0.310862,-0.178178 -0.117522,-0.106148 -0.197133,-0.238833 -0.07961,-0.132685 -0.11373,-0.250206 -0.03033,-0.121312 -0.03033,-0.22367 0,-0.363936 0.295698,-0.64068 0.295699,-0.276743 0.784739,-0.276743 h 2.104008 v 0.720291 h -2.104008 q -0.106149,0 -0.178178,0.06066 -0.06824,0.05687 -0.06824,0.136476 0,0.0834 0.06824,0.144059 0.07203,0.05686 0.178178,0.05686 h 1.914458 q 0.250206,0 0.409428,-0.178178 0.159222,-0.181968 0.159222,-0.580023 0,-0.398056 -0.159222,-0.576233 -0.159222,-0.181969 -0.409428,-0.181969 z m 5.989789,2.274604 q -1.402672,0 -1.402672,-1.516402 0,-1.516403 1.402672,-1.516403 h 1.630133 v 0.758201 H 20.03019 q -0.250206,0 -0.409428,0.181969 -0.159223,0.178177 -0.159223,0.576233 0,0.398055 0.159223,0.580023 0.159222,0.178178 0.409428,0.178178 h 1.630133 v 0.758201 z m 3.222355,0 q -1.402672,0 -1.402672,-1.516402 0,-1.516403 1.402672,-1.516403 h 1.914458 q 0.235043,0 0.424593,0.07203 0.193341,0.06824 0.310862,0.174387 0.121312,0.106148 0.200924,0.238833 0.07961,0.132685 0.109939,0.253997 0.03412,0.117521 0.03412,0.219879 0,0.363936 -0.295699,0.64068 -0.295698,0.276743 -0.784738,0.276743 h -2.104008 v -0.720291 h 2.104008 q 0.106148,0 0.174386,-0.05686 0.07203,-0.06066 0.07203,-0.140267 0,-0.0834 -0.07203,-0.140268 -0.06824,-0.06066 -0.174386,-0.06066 h -1.914458 q -0.250206,0 -0.409428,0.181969 -0.159223,0.178177 -0.159223,0.576233 0,0.398055 0.159223,0.580023 0.159222,0.178178 0.409428,0.178178 h 2.994895 v 0.758201 z"
       id="path11" />
    <path
       style="font-family:Amalgama;-inkscape-font-specification:Amalgama"
       d="m 6.2688394,20.803073 v -0.644471 h 2.1419182 q 0.079611,0 0.1440583,-0.06066 0.064447,-0.06445 0.064447,-0.14785 0,-0.0834 -0.064447,-0.144058 -0.064447,-0.06445 -0.1440583,-0.06445 H 7.2924109 q -0.4397566,0 -0.7316641,-0.276743 -0.2919074,-0.280535 -0.2919074,-0.708918 0,-0.181969 0.064447,-0.352564 0.064447,-0.174386 0.1857592,-0.314653 0.1251032,-0.144059 0.3222355,-0.231252 0.2009233,-0.08719 0.4511297,-0.08719 h 2.1608733 v 0.758201 H 7.368231 q -0.1213121,0 -0.1933413,0.06824 -0.072029,0.06824 -0.072029,0.159223 0,0.09098 0.072029,0.159222 0.072029,0.06824 0.1933413,0.06824 h 1.0993917 q 0.3866826,0 0.6861721,0.269161 0.2994894,0.265371 0.2994894,0.64068 0,0.356355 -0.2729524,0.633098 -0.2729524,0.276744 -0.7127091,0.276744 z m 3.373995,0 v -3.032805 h 0.8340216 v 1.137302 h 1.364762 v -1.137302 h 0.834021 v 3.032805 h -0.834021 v -1.137302 h -1.364762 v 1.137302 z m 4.2155986,-2.092636 q -0.159223,0.178178 -0.159223,0.576233 0,0.398056 0.159223,0.580024 0.159222,0.178178 0.409428,0.178178 h 1.592223 q 0.250206,0 0.409428,-0.178178 0.159223,-0.181968 0.159223,-0.580024 0,-0.398055 -0.159223,-0.576233 -0.159222,-0.181968 -0.409428,-0.181968 h -1.592223 q -0.250206,0 -0.409428,0.181968 z m 0.409428,2.092636 q -1.402672,0 -1.402672,-1.516403 0,-1.516402 1.402672,-1.516402 h 1.592223 q 1.402672,0 1.402672,1.516402 0,1.516403 -1.402672,1.516403 z m 4.177689,-2.092636 q -0.159222,0.178178 -0.159222,0.576233 0,0.398056 0.159222,0.580024 0.159222,0.178178 0.409428,0.178178 h 1.592223 q 0.250206,0 0.409428,-0.178178 0.159223,-0.181968 0.159223,-0.580024 0,-0.398055 -0.159223,-0.576233 -0.159222,-0.181968 -0.409428,-0.181968 h -1.592223 q -0.250206,0 -0.409428,0.181968 z m 0.409428,2.092636 q -1.402672,0 -1.402672,-1.516403 0,-1.516402 1.402672,-1.516402 h 1.592223 q 1.402672,0 1.402672,1.516402 0,1.516403 -1.402672,1.516403 z m 3.184445,-2.274604 v -0.758201 h 3.032805 v 0.758201 h -1.099392 v 2.274604 h -0.834021 v -2.274604 z m 4.625028,2.274604 q -1.402673,0 -1.402673,-1.516403 0,-1.516402 1.402673,-1.516402 h 1.914457 q 0.235043,0 0.424593,0.07203 0.193341,0.06824 0.310863,0.174386 0.121312,0.106149 0.200923,0.238834 0.07961,0.132685 0.109939,0.253997 0.03412,0.117521 0.03412,0.219878 0,0.363937 -0.295698,0.64068 -0.295699,0.276744 -0.784739,0.276744 H 26.4749 v -0.720291 h 2.104008 q 0.106149,0 0.174387,-0.05687 0.07203,-0.06066 0.07203,-0.140268 0,-0.0834 -0.07203,-0.140267 -0.06824,-0.06066 -0.174387,-0.06066 h -1.914457 q -0.250207,0 -0.409429,0.181968 -0.159222,0.178178 -0.159222,0.576233 0,0.398056 0.159222,0.580024 0.159222,0.178178 0.409429,0.178178 h 2.994894 v 0.758201 z m 3.184446,0 V 18.90757 q 0,-0.470085 0.363936,-0.803693 0.367728,-0.333609 0.887095,-0.333609 h 1.933413 q 0.250207,0 0.447339,0.08719 0.200923,0.08719 0.322236,0.231252 0.125103,0.140267 0.18955,0.314653 0.06445,0.170595 0.06445,0.352564 0,0.428383 -0.291907,0.708918 -0.291908,0.276743 -0.731665,0.276743 h -1.118346 q -0.07961,0 -0.144059,0.06445 -0.06445,0.06066 -0.06445,0.144058 0,0.0834 0.06445,0.14785 0.06445,0.06066 0.144059,0.06066 h 2.141918 v 0.644471 H 31.85813 q -0.439757,0 -0.71271,-0.276744 -0.272952,-0.276743 -0.272952,-0.633098 0,-0.375309 0.29949,-0.64068 0.299489,-0.269161 0.686172,-0.269161 h 1.099391 q 0.121312,0 0.193342,-0.06824 0.07203,-0.06824 0.07203,-0.159222 0,-0.09098 -0.07203,-0.159223 -0.07203,-0.06824 -0.193342,-0.06824 h -1.857593 q -0.174386,0 -0.295698,0.11373 -0.121312,0.10994 -0.121312,0.265371 v 1.895503 z"
       id="path12" />
  </g>
  <g
     id="text14"
     style="font-size:3.88199px;opacity:0.95;fill:#d45500;stroke-width:0.366802"
     transform="translate(-1.8521499)"
     aria-label="Space&#10;Shooter">
    <path
       style="font-family:Amalgama;-inkscape-font-specification:Amalgama"
       d="m 6.7980061,16.427534 v -0.644471 h 2.1419182 q 0.079611,0 0.1440583,-0.06066 0.064447,-0.06445 0.064447,-0.147849 0,-0.0834 -0.064447,-0.144058 -0.064447,-0.06445 -0.1440583,-0.06445 H 7.8215776 q -0.4397566,0 -0.7316641,-0.276743 -0.2919074,-0.280534 -0.2919074,-0.708918 0,-0.181968 0.064447,-0.352564 0.064447,-0.174386 0.1857592,-0.314653 0.1251032,-0.144058 0.3222355,-0.231251 0.2009233,-0.08719 0.4511297,-0.08719 h 2.1608733 v 0.758202 H 7.8973977 q -0.1213121,0 -0.1933413,0.06824 -0.072029,0.06824 -0.072029,0.159222 0,0.09098 0.072029,0.159222 0.072029,0.06824 0.1933413,0.06824 h 1.0993917 q 0.3866826,0 0.6861721,0.269162 0.2994894,0.26537 0.2994894,0.64068 0,0.356354 -0.2729524,0.633098 -0.2729524,0.276743 -0.7127091,0.276743 z m 3.3739949,0 v -1.895503 q 0,-0.470085 0.363937,-0.803693 0.367727,-0.333609 0.887095,-0.333609 h 1.705953 q 0.519367,0 0.883304,0.333609 0.367728,0.333608 0.367728,0.803693 0,0.470085 -0.367728,0.803693 -0.363937,0.333609 -0.883304,0.333609 h -1.933413 v -0.758201 h 1.933413 q 0.174386,0 0.295698,-0.109939 0.121312,-0.113731 0.121312,-0.269162 0,-0.155431 -0.121312,-0.26537 -0.121312,-0.11373 -0.295698,-0.11373 h -1.705953 q -0.174386,0 -0.295698,0.11373 -0.121313,0.109939 -0.121313,0.26537 v 1.895503 z m 4.397567,-2.274603 v -0.758202 h 2.994894 q 1.402672,0 1.402672,1.516403 0,1.516402 -1.402672,1.516402 h -1.914458 q -0.235042,0 -0.428383,-0.06824 -0.189551,-0.07203 -0.310863,-0.178177 -0.117521,-0.106148 -0.197132,-0.238834 -0.07961,-0.132685 -0.11373,-0.250206 -0.03033,-0.121312 -0.03033,-0.223669 0,-0.363937 0.295698,-0.64068 0.295699,-0.276744 0.784738,-0.276744 h 2.104009 v 0.720291 h -2.104009 q -0.106148,0 -0.178177,0.06066 -0.06824,0.05687 -0.06824,0.136477 0,0.0834 0.06824,0.144058 0.07203,0.05687 0.178177,0.05687 h 1.914458 q 0.250207,0 0.409429,-0.178177 0.159222,-0.181969 0.159222,-0.580024 0,-0.398056 -0.159222,-0.576233 -0.159222,-0.181968 -0.409429,-0.181968 z m 5.989789,2.274603 q -1.402672,0 -1.402672,-1.516402 0,-1.516403 1.402672,-1.516403 h 1.630133 v 0.758202 h -1.630133 q -0.250206,0 -0.409429,0.181968 -0.159222,0.178177 -0.159222,0.576233 0,0.398055 0.159222,0.580024 0.159223,0.178177 0.409429,0.178177 h 1.630133 v 0.758201 z m 3.222355,0 q -1.402672,0 -1.402672,-1.516402 0,-1.516403 1.402672,-1.516403 h 1.914458 q 0.235042,0 0.424593,0.07203 0.193341,0.06824 0.310862,0.174386 0.121312,0.106148 0.200923,0.238833 0.07961,0.132685 0.109939,0.253998 0.03412,0.117521 0.03412,0.219878 0,0.363936 -0.295699,0.64068 -0.295698,0.276743 -0.784738,0.276743 h -2.104008 v -0.720291 h 2.104008 q 0.106148,0 0.174386,-0.05687 0.07203,-0.06066 0.07203,-0.140267 0,-0.0834 -0.07203,-0.140267 -0.06824,-0.06066 -0.174386,-0.06066 h -1.914458 q -0.250206,0 -0.409429,0.181968 -0.159222,0.178177 -0.159222,0.576233 0,0.398055 0.159222,0.580024 0.159223,0.178177 0.409429,0.178177 h 2.994895 v 0.758201 z"
       id="path13" />
    <path
       style="font-family:Amalgama;-inkscape-font-specification:Amalgama"
       d="m 6.7980061,21.332238 v -0.644471 h 2.1419182 q 0.079611,0 0.1440583,-0.06066 0.064447,-0.06445 0.064447,-0.147849 0,-0.0834 -0.064447,-0.144059 -0.064447,-0.06445 -0.1440583,-0.06445 H 7.8215776 q -0.4397566,0 -0.7316641,-0.276743 -0.2919074,-0.280535 -0.2919074,-0.708918 0,-0.181968 0.064447,-0.352564 0.064447,-0.174386 0.1857592,-0.314653 0.1251032,-0.144058 0.3222355,-0.231252 0.2009233,-0.08719 0.4511297,-0.08719 h 2.1608733 v 0.758201 H 7.8973977 q -0.1213121,0 -0.1933413,0.06824 -0.072029,0.06824 -0.072029,0.159222 0,0.09098 0.072029,0.159222 0.072029,0.06824 0.1933413,0.06824 h 1.0993917 q 0.3866826,0 0.6861721,0.269162 0.2994894,0.26537 0.2994894,0.64068 0,0.356354 -0.2729524,0.633098 -0.2729524,0.276743 -0.7127091,0.276743 z m 3.3739949,0 v -3.032805 h 0.834021 v 1.137302 h 1.364762 v -1.137302 h 0.834022 v 3.032805 h -0.834022 v -1.137302 h -1.364762 v 1.137302 z m 4.215598,-2.092635 q -0.159222,0.178177 -0.159222,0.576233 0,0.398055 0.159222,0.580023 0.159223,0.178178 0.409429,0.178178 h 1.592222 q 0.250207,0 0.409429,-0.178178 0.159222,-0.181968 0.159222,-0.580023 0,-0.398056 -0.159222,-0.576233 -0.159222,-0.181969 -0.409429,-0.181969 h -1.592222 q -0.250206,0 -0.409429,0.181969 z m 0.409429,2.092635 q -1.402672,0 -1.402672,-1.516402 0,-1.516403 1.402672,-1.516403 h 1.592222 q 1.402673,0 1.402673,1.516403 0,1.516402 -1.402673,1.516402 z m 4.177688,-2.092635 q -0.159222,0.178177 -0.159222,0.576233 0,0.398055 0.159222,0.580023 0.159223,0.178178 0.409429,0.178178 h 1.592223 q 0.250206,0 0.409428,-0.178178 0.159222,-0.181968 0.159222,-0.580023 0,-0.398056 -0.159222,-0.576233 -0.159222,-0.181969 -0.409428,-0.181969 h -1.592223 q -0.250206,0 -0.409429,0.181969 z m 0.409429,2.092635 q -1.402672,0 -1.402672,-1.516402 0,-1.516403 1.402672,-1.516403 h 1.592223 q 1.402672,0 1.402672,1.516403 0,1.516402 -1.402672,1.516402 z m 3.184445,-2.274604 v -0.758201 h 3.032805 v 0.758201 h -1.099392 v 2.274604 h -0.834021 v -2.274604 z m 4.625027,2.274604 q -1.402672,0 -1.402672,-1.516402 0,-1.516403 1.402672,-1.516403 h 1.914458 q 0.235043,0 0.424593,0.07203 0.193341,0.06824 0.310862,0.174387 0.121312,0.106148 0.200924,0.238833 0.07961,0.132685 0.109939,0.253997 0.03412,0.117522 0.03412,0.219879 0,0.363936 -0.295699,0.64068 -0.295698,0.276743 -0.784738,0.276743 H 27.004067 V 19.45569 h 2.104008 q 0.106148,0 0.174386,-0.05687 0.07203,-0.06066 0.07203,-0.140267 0,-0.0834 -0.07203,-0.140267 -0.06824,-0.06066 -0.174386,-0.06066 h -1.914458 q -0.250206,0 -0.409428,0.181969 -0.159223,0.178177 -0.159223,0.576233 0,0.398055 0.159223,0.580023 0.159222,0.178178 0.409428,0.178178 h 2.994895 v 0.758201 z m 3.184446,0 v -1.895503 q 0,-0.470085 0.363937,-0.803693 0.367727,-0.333609 0.887095,-0.333609 h 1.933413 q 0.250206,0 0.447339,0.08719 0.200923,0.08719 0.322235,0.231252 0.125103,0.140267 0.189551,0.314653 0.06445,0.170596 0.06445,0.352564 0,0.428383 -0.291908,0.708918 -0.291907,0.276743 -0.731664,0.276743 h -1.118347 q -0.07961,0 -0.144058,0.06445 -0.06445,0.06066 -0.06445,0.144059 0,0.0834 0.06445,0.147849 0.06445,0.06066 0.144058,0.06066 h 2.141919 v 0.644471 h -2.198784 q -0.439756,0 -0.712709,-0.276743 -0.272952,-0.276744 -0.272952,-0.633098 0,-0.37531 0.299489,-0.64068 0.29949,-0.269162 0.686172,-0.269162 h 1.099392 q 0.121312,0 0.193341,-0.06824 0.07203,-0.06824 0.07203,-0.159222 0,-0.09098 -0.07203,-0.159222 -0.07203,-0.06824 -0.193341,-0.06824 h -1.857593 q -0.174386,0 -0.295698,0.113731 -0.121313,0.109939 -0.121313,0.26537 v 1.895503 z"
       id="path14" />
  </g>
  <g
     id="text16"
     style="font-size:3.72997px;opacity:0.95;fill:#aa4400;stroke:#ffffff;stroke-width:0.31083"
     transform="translate(-1.8521499)"
     aria-label="Space&#10;Shooter">
    <path
       style="font-family:Amalgama;-inkscape-font-specification:Amalgama"
       d="m 7.3502965,16.861061 v -0.619233 h 2.0580401 q 0.076493,0 0.1384168,-0.05828 0.061923,-0.06192 0.061923,-0.142059 0,-0.08014 -0.061923,-0.138417 -0.061923,-0.06192 -0.1384168,-0.06192 H 8.3337847 q -0.4225357,0 -0.7030119,-0.265906 -0.2804763,-0.269548 -0.2804763,-0.681156 0,-0.174843 0.061923,-0.338757 0.061923,-0.167558 0.1784849,-0.302332 0.1202041,-0.138417 0.3096167,-0.222195 0.1930551,-0.08378 0.4334633,-0.08378 h 2.0762523 v 0.72851 H 8.4066357 q -0.1165616,0 -0.18577,0.06557 -0.069208,0.06557 -0.069208,0.152987 0,0.08742 0.069208,0.152987 0.069208,0.06557 0.18577,0.06557 h 1.0563391 q 0.37154,0 0.6593012,0.258621 0.287761,0.254978 0.287761,0.61559 0,0.3424 -0.262263,0.608306 -0.2622635,0.265906 -0.6847992,0.265906 z m 3.2418685,0 v -1.821274 q 0,-0.451676 0.349685,-0.772221 0.353327,-0.320544 0.852356,-0.320544 h 1.639147 q 0.499029,0 0.848714,0.320544 0.353327,0.320545 0.353327,0.772221 0,0.451676 -0.353327,0.77222 -0.349685,0.320544 -0.848714,0.320544 h -1.8577 v -0.728509 h 1.8577 q 0.167557,0 0.284119,-0.105634 0.116561,-0.109277 0.116561,-0.258621 0,-0.149345 -0.116561,-0.254979 -0.116562,-0.109276 -0.284119,-0.109276 h -1.639147 q -0.167557,0 -0.284119,0.109276 -0.116561,0.105634 -0.116561,0.254979 v 1.821274 z m 4.225357,-2.185529 v -0.72851 h 2.877613 q 1.347743,0 1.347743,1.45702 0,1.457019 -1.347743,1.457019 h -1.839487 q -0.225838,0 -0.411608,-0.06557 -0.182127,-0.06921 -0.298689,-0.1712 -0.112919,-0.101991 -0.189413,-0.22948 -0.07649,-0.127489 -0.109276,-0.240408 -0.02914,-0.116562 -0.02914,-0.214911 0,-0.349684 0.284118,-0.615591 0.284119,-0.265906 0.754008,-0.265906 h 2.021615 v 0.692085 h -2.021615 q -0.101991,0 -0.1712,0.05828 -0.06557,0.05464 -0.06557,0.131132 0,0.08014 0.06557,0.138417 0.06921,0.05464 0.1712,0.05464 h 1.839487 q 0.240408,0 0.393395,-0.171199 0.152987,-0.174843 0.152987,-0.55731 0,-0.382468 -0.152987,-0.553668 -0.152987,-0.174842 -0.393395,-0.174842 z m 5.755227,2.185529 q -1.347743,0 -1.347743,-1.457019 0,-1.45702 1.347743,-1.45702 h 1.566296 v 0.72851 h -1.566296 q -0.240409,0 -0.393396,0.174842 -0.152987,0.1712 -0.152987,0.553668 0,0.382467 0.152987,0.55731 0.152987,0.171199 0.393396,0.171199 h 1.566296 v 0.72851 z m 3.096166,0 q -1.347743,0 -1.347743,-1.457019 0,-1.45702 1.347743,-1.45702 h 1.839487 q 0.225838,0 0.407966,0.06921 0.18577,0.06557 0.298689,0.167558 0.116561,0.101991 0.193055,0.22948 0.07649,0.12749 0.105634,0.244051 0.03278,0.112919 0.03278,0.211268 0,0.349685 -0.284119,0.615591 -0.284119,0.265906 -0.754008,0.265906 h -2.021614 v -0.692085 h 2.021614 q 0.101992,0 0.167558,-0.05464 0.06921,-0.05828 0.06921,-0.134774 0,-0.08014 -0.06921,-0.134774 -0.06557,-0.05828 -0.167558,-0.05828 h -1.839487 q -0.240408,0 -0.393395,0.174842 -0.152987,0.1712 -0.152987,0.553668 0,0.382467 0.152987,0.55731 0.152987,0.171199 0.393395,0.171199 h 2.877614 v 0.72851 z"
       id="path15" />
    <path
       style="font-family:Amalgama;-inkscape-font-specification:Amalgama"
       d="m 7.3502965,21.573695 v -0.619233 h 2.0580401 q 0.076493,0 0.1384168,-0.05828 0.061923,-0.06192 0.061923,-0.142059 0,-0.08014 -0.061923,-0.138417 -0.061923,-0.06192 -0.1384168,-0.06192 H 8.3337847 q -0.4225357,0 -0.7030119,-0.265906 -0.2804763,-0.269548 -0.2804763,-0.681156 0,-0.174843 0.061923,-0.338757 0.061923,-0.167557 0.1784849,-0.302332 0.1202041,-0.138417 0.3096167,-0.222195 0.1930551,-0.08378 0.4334633,-0.08378 h 2.0762523 v 0.72851 H 8.4066357 q -0.1165616,0 -0.18577,0.06557 -0.069208,0.06557 -0.069208,0.152987 0,0.08742 0.069208,0.152987 0.069208,0.06557 0.18577,0.06557 h 1.0563391 q 0.37154,0 0.6593012,0.258621 0.287761,0.254978 0.287761,0.61559 0,0.3424 -0.262263,0.608306 -0.2622635,0.265906 -0.6847992,0.265906 z m 3.2418685,0 v -2.914039 h 0.801361 v 1.092765 h 1.311317 v -1.092765 h 0.801361 v 2.914039 h -0.801361 v -1.092764 h -1.311317 v 1.092764 z m 4.050514,-2.010687 q -0.152987,0.1712 -0.152987,0.553668 0,0.382467 0.152987,0.55731 0.152987,0.171199 0.393395,0.171199 h 1.529871 q 0.240408,0 0.393395,-0.171199 0.152987,-0.174843 0.152987,-0.55731 0,-0.382468 -0.152987,-0.553668 -0.152987,-0.174842 -0.393395,-0.174842 h -1.529871 q -0.240408,0 -0.393395,0.174842 z m 0.393395,2.010687 q -1.347743,0 -1.347743,-1.457019 0,-1.45702 1.347743,-1.45702 h 1.529871 q 1.347743,0 1.347743,1.45702 0,1.457019 -1.347743,1.457019 z m 4.014089,-2.010687 q -0.152987,0.1712 -0.152987,0.553668 0,0.382467 0.152987,0.55731 0.152987,0.171199 0.393395,0.171199 h 1.529871 q 0.240408,0 0.393395,-0.171199 0.152987,-0.174843 0.152987,-0.55731 0,-0.382468 -0.152987,-0.553668 -0.152987,-0.174842 -0.393395,-0.174842 h -1.529871 q -0.240408,0 -0.393395,0.174842 z m 0.393395,2.010687 q -1.347743,0 -1.347743,-1.457019 0,-1.45702 1.347743,-1.45702 h 1.529871 q 1.347743,0 1.347743,1.45702 0,1.457019 -1.347743,1.457019 z m 3.059741,-2.185529 v -0.72851 h 2.914039 v 0.72851 h -1.056339 v 2.185529 h -0.801361 v -2.185529 z m 4.443909,2.185529 q -1.347743,0 -1.347743,-1.457019 0,-1.45702 1.347743,-1.45702 h 1.839487 q 0.225838,0 0.407966,0.06921 0.18577,0.06556 0.298689,0.167557 0.116561,0.101991 0.193055,0.22948 0.07649,0.12749 0.105634,0.244051 0.03278,0.112919 0.03278,0.211268 0,0.349685 -0.284119,0.615591 -0.284119,0.265906 -0.754008,0.265906 h -2.021614 v -0.692085 h 2.021614 q 0.101991,0 0.167557,-0.05464 0.06921,-0.05828 0.06921,-0.134774 0,-0.08014 -0.06921,-0.134774 -0.06557,-0.05828 -0.167557,-0.05828 h -1.839487 q -0.240408,0 -0.393395,0.174842 -0.152987,0.1712 -0.152987,0.553668 0,0.382467 0.152987,0.55731 0.152987,0.171199 0.393395,0.171199 h 2.877614 v 0.72851 z m 3.059743,0 v -1.821274 q 0,-0.451676 0.349685,-0.772221 0.353327,-0.320544 0.852356,-0.320544 h 1.8577 q 0.240408,0 0.429821,0.08378 0.193055,0.08378 0.309616,0.222195 0.120204,0.134775 0.182128,0.302332 0.06192,0.163914 0.06192,0.338757 0,0.411608 -0.280476,0.681156 -0.280476,0.265906 -0.703012,0.265906 H 31.99214 q -0.07649,0 -0.138417,0.06192 -0.06192,0.05828 -0.06192,0.138417 0,0.08014 0.06192,0.142059 0.06192,0.05828 0.138417,0.05828 h 2.05804 v 0.619233 h -2.112678 q -0.422536,0 -0.684799,-0.265906 -0.262264,-0.265906 -0.262264,-0.608306 0,-0.360612 0.287761,-0.61559 0.287762,-0.258621 0.659302,-0.258621 h 1.056339 q 0.116561,0 0.18577,-0.06557 0.06921,-0.06557 0.06921,-0.152987 0,-0.08742 -0.06921,-0.152987 -0.06921,-0.06557 -0.18577,-0.06557 h -1.784849 q -0.167557,0 -0.284119,0.109276 -0.116561,0.105634 -0.116561,0.254979 v 1.821274 z"
       id="path16" />
  </g>
  <path
     sodipodi:type="star"
     style="opacity:1;fill:#ffff00;stroke:#ffffff;stroke-width:0.264583;stroke-dasharray:none;stroke-opacity:1"
     id="path115"
     inkscape:flatsided="false"
     sodipodi:sides="5"
     sodipodi:cx="3.7398772"
     sodipodi:cy="3.6359917"
     sodipodi:r1="2.6511159"
     sodipodi:r2="1.3255579"
     sodipodi:arg1="0.60430551"
     sodipodi:arg2="1.232624"
     inkscape:rounded="0"
     inkscape:randomized="0"
     d="M 5.9214723,5.1423313 4.179649,4.8864736 2.9814132,6.1762965 2.6864953,4.4406597 1.0895256,3.699647 2.6490797,2.8828221 2.8603339,1.1350282 4.1191092,2.3658395 5.8466411,2.0266561 5.065053,3.6041642 Z"
     inkscape:transform-center-x="0.23437826"
     inkscape:transform-center-y="0.019670536" />
  <path
     sodipodi:type="star"
     style="opacity:1;fill:#ffa100;stroke:#ffffff;stroke-width:0.264583;stroke-dasharray:none;stroke-opacity:1;fill-opacity:1"
     id="path116"
     inkscape:flatsided="false"
     sodipodi:sides="5"
     sodipodi:cx="3.7398772"
     sodipodi:cy="3.6359918"
     sodipodi:r1="2.6511159"
     sodipodi:r2="1.3255579"
     sodipodi:arg1="0.60430551"
     sodipodi:arg2="1.232624"
     inkscape:rounded="0"
     inkscape:randomized="0"
     d="M 5.9214723,5.1423313 4.179649,4.8864736 2.9814132,6.1762965 2.6864953,4.4406597 1.0895256,3.699647 2.6490797,2.8828221 2.8603339,1.1350282 4.1191092,2.3658395 5.8466411,2.0266561 5.065053,3.6041642 Z"
     inkscape:transform-center-x="0.23437826"
     inkscape:transform-center-y="0.019670536"
     transform="translate(20.361554,1.2985685)" />
  <path
     sodipodi:type="star"
     style="opacity:1;fill:#ffc000;stroke:#ffffff;stroke-width:0.264583;stroke-dasharray:none;stroke-opacity:1;fill-opacity:1"
     id="path117"
     inkscape:flatsided="false"
     sodipodi:sides="5"
     sodipodi:cx="3.7398772"
     sodipodi:cy="3.6359918"
     sodipodi:r1="2.3689534"
     sodipodi:r2="1.3255579"
     sodipodi:arg1="0.90975316"
     sodipodi:arg2="1.5380717"
     inkscape:rounded="0"
     inkscape:randomized="0"
     d="M 5.194274,5.5059305 3.7832479,4.9608401 2.4108932,5.5970481 2.4932739,4.0866404 1.4641232,2.9780526 2.9260634,2.5896597 3.6623679,1.2683067 4.4835159,2.5386744 5.9677279,2.8306211 5.013285,4.0041445 Z"
     inkscape:transform-center-x="0.23437826"
     inkscape:transform-center-y="0.019670536"
     transform="translate(2.3893662,1.5582822)" />
  <path
     sodipodi:type="star"
     style="opacity:1;fill:#ffff00;stroke:#ffffff;stroke-width:0.264583;stroke-dasharray:none;stroke-opacity:1"
     id="path118"
     inkscape:flatsided="false"
     sodipodi:sides="5"
     sodipodi:cx="3.7398772"
     sodipodi:cy="3.6359918"
     sodipodi:r1="2.3689535"
     sodipodi:r2="1.3255579"
     sodipodi:arg1="0.90975316"
     sodipodi:arg2="1.5380717"
     inkscape:rounded="0"
     inkscape:randomized="0"
     d="M 5.194274,5.5059305 3.7832479,4.9608401 2.4108932,5.5970481 2.4932739,4.0866404 1.4641232,2.9780526 2.9260634,2.5896597 3.6623679,1.2683067 4.4835159,2.5386744 5.9677279,2.8306211 5.013285,4.0041445 Z"
     inkscape:transform-center-x="0.23437826"
     inkscape:transform-center-y="0.019670536"
     transform="translate(1.2985687,19.738241)" />
  <path
     sodipodi:type="star"
     style="opacity:1;fill:#0affcd;stroke:#ffffff;stroke-width:0.264583;stroke-dasharray:none;stroke-opacity:1;fill-opacity:1"
     id="path119"
     inkscape:flatsided="false"
     sodipodi:sides="5"
     sodipodi:cx="3.7398772"
     sodipodi:cy="3.6359918"
     sodipodi:r1="2.3689535"
     sodipodi:r2="1.3255579"
     sodipodi:arg1="0.90975316"
     sodipodi:arg2="1.5380717"
     inkscape:rounded="0"
     inkscape:randomized="0"
     d="M 5.194274,5.5059305 3.7832479,4.9608401 2.4108932,5.5970481 2.4932739,4.0866404 1.4641232,2.9780526 2.9260634,2.5896597 3.6623679,1.2683067 4.4835159,2.5386744 5.9677279,2.8306211 5.013285,4.0041445 Z"
     inkscape:transform-center-x="0.23437826"
     inkscape:transform-center-y="0.019670536"
     transform="translate(-0.36359896,23.114519)" />
  <path
     sodipodi:type="star"
     style="opacity:1;fill:#ffff00;stroke:#ffffff;stroke-width:0.264583;stroke-dasharray:none;stroke-opacity:1"
     id="path120"
     inkscape:flatsided="false"
     sodipodi:sides="5"
     sodipodi:cx="3.7398772"
     sodipodi:cy="3.6359918"
     sodipodi:r1="2.3689535"
     sodipodi:r2="1.3255579"
     sodipodi:arg1="0.90975316"
     sodipodi:arg2="1.5380717"
     inkscape:rounded="0"
     inkscape:randomized="0"
     d="M 5.194274,5.5059305 3.7832479,4.9608401 2.4108932,5.5970481 2.4932739,4.0866404 1.4641232,2.9780526 2.9260634,2.5896597 3.6623679,1.2683067 4.4835159,2.5386744 5.9677279,2.8306211 5.013285,4.0041445 Z"
     inkscape:transform-center-x="0.23437826"
     inkscape:transform-center-y="0.019670536"
     transform="translate(23.737832,23.270347)" />
  <path
     sodipodi:type="star"
     style="opacity:1;fill:#ffff31;stroke:#ffffff;stroke-width:0.264583;stroke-dasharray:none;stroke-opacity:1;fill-opacity:1"
     id="path121"
     inkscape:flatsided="false"
     sodipodi:sides="5"
     sodipodi:cx="3.7398772"
     sodipodi:cy="3.6359918"
     sodipodi:r1="2.3426118"
     sodipodi:r2="0.98167205"
     sodipodi:arg1="0.066568189"
     sodipodi:arg2="0.52327443"
     inkscape:rounded="0"
     inkscape:randomized="0"
     d="M 6.0773005,3.7918201 4.5901893,4.1265521 4.3139792,5.907167 3.5360876,4.5962781 1.7572685,4.883827 2.7636162,3.7389211 1.9404556,2.1360212 3.3403044,2.7393193 4.6103822,1.4611238 4.4691886,2.9788884 Z"
     inkscape:transform-center-x="0.23437826"
     inkscape:transform-center-y="0.019670536"
     transform="translate(20.829039,21.81595)" />
</svg>
